<svg width="1750" height="300" viewBox="0 0 1750 300" fill="none" xmlns="http://www.w3.org/2000/svg">
<path d="M989.53 208.92V130.46H952.2V91.4H989.53V35.76H1036.19V91.4H1088.03V130.46H1036.19V204.43C1036.19 218.26 1043.1 225.17 1056.93 225.17H1088.03V264.23H1048.28C1008.88 264.23 989.52 245.91 989.52 208.93L989.53 208.92Z" fill="white"/>
<path d="M1095.61 177.81C1095.61 123.55 1131.21 85.87 1182.36 85.87C1233.51 85.87 1268.77 123.2 1268.77 178.5V191.63H1143.65C1143.65 214.44 1161.28 230.69 1185.82 230.69C1202.76 230.69 1216.58 222.74 1221.77 209.95L1268.78 213.4C1263.6 247.27 1231.1 269.74 1187.9 269.74C1132.6 269.74 1095.62 233.1 1095.62 177.8L1095.61 177.81ZM1220.73 157.76C1220.73 137.02 1206.56 124.93 1182.37 124.93C1158.18 124.93 1143.66 137.37 1143.66 157.76H1220.74H1220.73Z" fill="white"/>
<path d="M1290.21 91.4H1336.87V127.69C1344.13 104.19 1356.92 91.4 1375.23 91.4H1407.03V130.46H1378.69C1347.93 130.46 1336.87 146.7 1336.87 192.33V264.22H1290.21V91.4Z" fill="white"/>
<path d="M1418.44 91.4H1465.1V127.69C1472.36 104.19 1485.14 91.4 1503.46 91.4H1535.26V130.46H1506.92C1476.16 130.46 1465.1 146.7 1465.1 192.33V264.22H1418.44V91.4Z" fill="white"/>
<path d="M1539.41 218.25C1539.41 184.03 1565.68 164.68 1615.45 162.6C1644.14 161.22 1657.27 154.65 1655.2 142.55C1653.47 132.18 1641.72 124.92 1626.51 124.92C1606.46 124.92 1590.56 137.36 1590.56 152.92L1544.24 149.47C1544.24 112.49 1578.8 85.87 1626.5 85.87C1674.2 85.87 1702.19 111.45 1702.19 151.54V264.21H1655.53V229.65C1647.93 255.92 1628.57 269.74 1598.16 269.74C1561.87 269.74 1539.4 250.04 1539.4 218.24L1539.41 218.25ZM1610.27 230.69C1636.54 230.69 1655.55 207.88 1655.55 180.23V176.78C1648.29 185.08 1636.89 190.61 1621.68 192.68C1608.2 194.41 1587.12 193.72 1587.12 212.38C1587.12 225.17 1597.14 230.7 1610.28 230.7L1610.27 230.69Z" fill="white"/>
<path d="M455.65 190.03C448.68 190.03 443.04 195.68 443.04 202.64C443.04 209.6 448.69 215.26 455.65 215.26C462.61 215.26 468.27 209.61 468.27 202.64C468.27 195.67 462.62 190.03 455.65 190.03Z" fill="#3D9DD8"/>
<path d="M455.65 242.67C448.68 242.67 443.04 248.32 443.04 255.29C443.04 262.26 448.69 267.91 455.65 267.91C462.61 267.91 468.27 262.26 468.27 255.29C468.27 248.32 462.62 242.67 455.65 242.67Z" fill="#3D9DD8"/>
<path d="M455.65 32.1C448.68 32.1 443.04 37.75 443.04 44.72C443.04 51.69 448.69 57.34 455.65 57.34C462.61 57.34 468.27 51.69 468.27 44.72C468.27 37.75 462.62 32.1 455.65 32.1Z" fill="#3D9DD8"/>
<path d="M455.65 84.74C448.68 84.74 443.04 90.39 443.04 97.35C443.04 104.31 448.69 109.97 455.65 109.97C462.61 109.97 468.27 104.32 468.27 97.35C468.27 90.38 462.62 84.74 455.65 84.74Z" fill="#3D9DD8"/>
<path d="M344.38 137.38C337.41 137.38 331.76 143.03 331.76 150C331.76 156.97 337.41 162.62 344.38 162.62C351.35 162.62 356.99 156.97 356.99 150C356.99 143.03 351.34 137.38 344.38 137.38Z" fill="#3D9DD8"/>
<path d="M344.38 190.03C337.41 190.03 331.76 195.68 331.76 202.64C331.76 209.6 337.41 215.26 344.38 215.26C351.35 215.26 356.99 209.61 356.99 202.64C356.99 195.67 351.34 190.03 344.38 190.03Z" fill="#3D9DD8"/>
<path d="M344.38 242.67C337.41 242.67 331.76 248.32 331.76 255.29C331.76 262.26 337.41 267.91 344.38 267.91C351.35 267.91 356.99 262.26 356.99 255.29C356.99 248.32 351.34 242.67 344.38 242.67Z" fill="#3D9DD8"/>
<path d="M344.38 84.74C337.41 84.74 331.76 90.39 331.76 97.35C331.76 104.31 337.41 109.97 344.38 109.97C351.35 109.97 356.99 104.32 356.99 97.35C356.99 90.38 351.34 84.74 344.38 84.74Z" fill="#3D9DD8"/>
<path d="M400.019 162.62C406.989 162.62 412.639 156.97 412.639 150C412.639 143.03 406.989 137.38 400.019 137.38C393.05 137.38 387.399 143.03 387.399 150C387.399 156.97 393.05 162.62 400.019 162.62Z" fill="#3D9DD8"/>
<path d="M400.019 215.26C406.989 215.26 412.639 209.61 412.639 202.64C412.639 195.67 406.989 190.02 400.019 190.02C393.05 190.02 387.399 195.67 387.399 202.64C387.399 209.61 393.05 215.26 400.019 215.26Z" fill="#3D9DD8"/>
<path d="M400.019 267.9C406.989 267.9 412.639 262.25 412.639 255.28C412.639 248.31 406.989 242.66 400.019 242.66C393.05 242.66 387.399 248.31 387.399 255.28C387.399 262.25 393.05 267.9 400.019 267.9Z" fill="#3D9DD8"/>
<path d="M400.019 57.34C406.989 57.34 412.639 51.6898 412.639 44.72C412.639 37.7502 406.989 32.1 400.019 32.1C393.05 32.1 387.399 37.7502 387.399 44.72C387.399 51.6898 393.05 57.34 400.019 57.34Z" fill="#3D9DD8"/>
<path d="M400.019 109.98C406.989 109.98 412.639 104.33 412.639 97.36C412.639 90.3902 406.989 84.74 400.019 84.74C393.05 84.74 387.399 90.3902 387.399 97.36C387.399 104.33 393.05 109.98 400.019 109.98Z" fill="#3D9DD8"/>
<path d="M566.92 137.38C559.95 137.38 554.3 143.03 554.3 150C554.3 156.97 559.95 162.62 566.92 162.62C573.89 162.62 579.53 156.97 579.53 150C579.53 143.03 573.88 137.38 566.92 137.38Z" fill="#3D9DD8"/>
<path d="M566.92 190.03C559.95 190.03 554.3 195.68 554.3 202.64C554.3 209.6 559.95 215.26 566.92 215.26C573.89 215.26 579.53 209.61 579.53 202.64C579.53 195.67 573.88 190.03 566.92 190.03Z" fill="#3D9DD8"/>
<path d="M566.92 57.33C573.89 57.33 579.53 51.68 579.53 44.71C579.53 37.74 573.88 32.09 566.92 32.09C559.96 32.09 554.3 37.74 554.3 44.71C554.3 51.68 559.95 57.33 566.92 57.33Z" fill="#3D9DD8"/>
<path d="M566.92 84.74C559.95 84.74 554.3 90.39 554.3 97.35C554.3 104.31 559.95 109.97 566.92 109.97C573.89 109.97 579.53 104.32 579.53 97.35C579.53 90.38 573.88 84.74 566.92 84.74Z" fill="#3D9DD8"/>
<path d="M511.29 162.62C518.26 162.62 523.91 156.97 523.91 150C523.91 143.03 518.26 137.38 511.29 137.38C504.32 137.38 498.67 143.03 498.67 150C498.67 156.97 504.32 162.62 511.29 162.62Z" fill="#3D9DD8"/>
<path d="M511.29 215.26C518.26 215.26 523.91 209.61 523.91 202.64C523.91 195.67 518.26 190.02 511.29 190.02C504.32 190.02 498.67 195.67 498.67 202.64C498.67 209.61 504.32 215.26 511.29 215.26Z" fill="#3D9DD8"/>
<path d="M511.29 267.9C518.26 267.9 523.91 262.25 523.91 255.28C523.91 248.31 518.26 242.66 511.29 242.66C504.32 242.66 498.67 248.31 498.67 255.28C498.67 262.25 504.32 267.9 511.29 267.9Z" fill="#3D9DD8"/>
<path d="M511.29 57.34C518.26 57.34 523.91 51.6898 523.91 44.72C523.91 37.7502 518.26 32.1 511.29 32.1C504.32 32.1 498.67 37.7502 498.67 44.72C498.67 51.6898 504.32 57.34 511.29 57.34Z" fill="#3D9DD8"/>
<path d="M511.29 109.98C518.26 109.98 523.91 104.33 523.91 97.36C523.91 90.3902 518.26 84.74 511.29 84.74C504.32 84.74 498.67 90.3902 498.67 97.36C498.67 104.33 504.32 109.98 511.29 109.98Z" fill="#3D9DD8"/>
<path d="M831.47 150L889.35 47.44C890.68 45.08 890.66 42.19 889.29 39.84C887.92 37.5 885.41 36.06 882.7 36.06H642.74C640.03 36.06 637.52 37.5 636.15 39.84C634.78 42.18 634.76 45.07 636.09 47.44L693.97 150L636.09 252.56C634.76 254.92 634.78 257.81 636.15 260.16C637.52 262.5 640.03 263.94 642.74 263.94H882.7C885.41 263.94 887.92 262.5 889.29 260.16C890.66 257.82 890.68 254.93 889.35 252.56L831.47 150ZM822.71 134.48L775.78 51.32H869.63L822.7 134.48H822.71ZM813.95 150L762.72 240.78L711.49 150L762.72 59.22L813.95 150ZM655.8 51.32H749.65L702.72 134.48L655.79 51.32H655.8ZM702.73 165.52L749.66 248.68H655.81L702.74 165.52H702.73ZM775.79 248.68L822.72 165.52L869.65 248.68H775.8H775.79Z" fill="#F78BD8"/>
<path d="M154.1 25.82C85.6299 25.82 29.9199 81.53 29.9199 150C29.9199 218.47 85.6299 274.18 154.1 274.18C222.57 274.18 278.28 218.47 278.28 150C278.28 81.53 222.57 25.82 154.1 25.82ZM154.1 258.92C94.0399 258.92 45.1799 210.06 45.1799 150C45.1799 89.94 94.0399 41.08 154.1 41.08C214.16 41.08 263.02 89.94 263.02 150C263.02 210.06 214.16 258.92 154.1 258.92Z" fill="#FFB41D"/>
<path d="M154.1 73.07C111.68 73.07 77.1699 107.58 77.1699 150C77.1699 192.42 111.68 226.93 154.1 226.93C196.52 226.93 231.03 192.42 231.03 150C231.03 107.58 196.52 73.07 154.1 73.07ZM154.1 211.67C120.1 211.67 92.4299 184 92.4299 150C92.4299 116 120.1 88.33 154.1 88.33C188.1 88.33 215.77 116 215.77 150C215.77 184 188.1 211.67 154.1 211.67Z" fill="#FFB41D"/>
<path d="M154.1 118.75C136.87 118.75 122.85 132.77 122.85 150C122.85 167.23 136.87 181.25 154.1 181.25C171.33 181.25 185.35 167.23 185.35 150C185.35 132.77 171.33 118.75 154.1 118.75ZM154.1 166C145.28 166 138.1 158.82 138.1 150.01C138.1 141.2 145.28 134.01 154.1 134.01C162.92 134.01 170.1 141.19 170.1 150.01C170.1 158.83 162.92 166 154.1 166Z" fill="#FFB41D"/>
</svg>
